<?xml version="1.0" encoding="UTF-8"?>
<svg width="34px" height="34px" viewBox="0 0 34 34" version="1.1" xmlns="http://www.w3.org/2000/svg" xmlns:xlink="http://www.w3.org/1999/xlink">
    <title>公司备份 2</title>
    <g id="个人主页" stroke="none" stroke-width="1" fill="none" fill-rule="evenodd">
        <g id="公司备份-2" fill-rule="nonzero">
            <rect id="矩形" fill="#000000" opacity="0" x="0" y="0" width="34" height="34"></rect>
            <path d="M33.9968011,17 C34.1667703,27.5517663 27.5515676,34.1602178 16.9998775,33.9970461 C6.44818728,34.1602178 -0.160216641,27.5517662 0.00295382915,17 C-0.160216641,6.44823374 6.44818728,-0.160217796 16.9998775,0.00295385046 C27.5515676,-0.160217796 34.1599715,6.44823377 33.9968011,17 Z" id="路径" fill="#FF866E"></path>
            <path d="M34,18.3921539 C33.4671191,10.6443237 28.1733678,5.87642828 20.025899,6.0026373 C11.3245145,5.86240508 5.86248504,11.3244501 6.00271686,20.0258593 C5.86949662,28.1733513 10.6443902,33.4671176 18.3851867,34 C27.5633594,33.4390711 33.4390727,27.5633411 34,18.3921539 Z" id="路径" fill="#FF7F61"></path>
            <path d="M34,21.273941 C33.0200326,16.7052656 29.4110494,13.9208066 24.1395008,14.0019073 C17.8474344,13.9005314 13.9005314,17.8474344 14.0019073,24.1395008 C13.9208066,29.4110494 16.7052656,33.0200326 21.2671826,34 C28.2350885,32.8645895 32.8645895,28.2350885 34,21.273941 L34,21.273941 Z" id="路径" fill="#FF734D"></path>
            <path d="M33,23.0982182 C31.8820723,21.0984194 29.7573153,19.959645 26.9451369,20.0013075 C22.63313,19.9318701 19.93205,22.6329872 20.0014865,26.9450535 C19.952881,29.7572706 21.0985833,31.8820569 23.0914109,33 C27.8630746,31.5989988 31.5956735,27.8689643 33,23.0982182 L33,23.0982182 Z" id="路径" fill="#FF6A36"></path>
            <path d="M9.06250001,7 L15.9375,7 C17.0765873,7 18,7.8814394 18,8.96874998 L18,28 L7.68750003,28 C7.50516369,28 7.33029536,27.9308596 7.2013641,27.8077888 C7.07243283,27.6847181 7,27.5177983 7,27.34375 L7,8.96874998 C7,7.88143939 7.92341272,7 9.06250001,7 Z" id="路径" fill="#FFCBBD"></path>
            <path d="M18,12 L25.8571429,12 C27.0406102,12 28,12.8954305 28,14 L28,27.3333333 C28,27.7015232 27.6802034,28 27.2857143,28 L18,28 L18,12 Z" id="路径" fill="#FFFFFF"></path>
            <path d="M10.9,9 L15.1,9 C15.7,9 16,9.33333333 16,10 L16,10 C16,10.6666667 15.7,11 15.1,11 L10.9,11 C10.3,11 10,10.6666667 10,10 L10,10 C10,9.33333333 10.3,9 10.9,9 Z" id="路径" fill="#FFFFFF"></path>
            <path d="M10.9,12 L15.1,12 C15.7,12 16,12.3333333 16,13 L16,13 C16,13.6666667 15.7,14 15.1,14 L10.9,14 C10.3,14 10,13.6666667 10,13 L10,13 C10,12.3333333 10.3,12 10.9,12 Z" id="路径" fill="#FFFFFF"></path>
            <polygon id="路径" fill="#FFCBBD" points="18 22 28 22 28 24 18 24"></polygon>
        </g>
    </g>
</svg>