<?xml version="1.0" encoding="UTF-8"?>
<svg width="34px" height="34px" viewBox="0 0 34 34" version="1.1" xmlns="http://www.w3.org/2000/svg" xmlns:xlink="http://www.w3.org/1999/xlink">
    <title>话题备份 2</title>
    <g id="个人主页" stroke="none" stroke-width="1" fill="none" fill-rule="evenodd">
        <g id="话题备份-2" fill-rule="nonzero">
            <rect id="矩形" fill="#000000" opacity="0" x="0" y="0" width="34" height="34"></rect>
            <path d="M14.1678628,0.00416293758 L19.8321372,0.00416293758 C23.6005729,-0.0788496017 27.6844284,1.07668514 30.2609096,3.73640731 C32.9237162,6.31311695 34.0758283,10.3973345 33.9961433,14.1661044 L33.9961433,19.830881 C34.0758283,23.5996509 32.9237162,27.6838685 30.2609096,30.2605781 C27.6844284,32.9236207 23.6005729,34.075835 19.8321372,33.9961429 L14.1678628,33.9961429 C10.3994271,34.075835 6.3155716,32.9236208 3.73909041,30.2605781 C1.07628384,27.6871889 -0.0758282528,23.6029714 0.0038567315,19.8342015 L0.0038567315,14.1694249 C-0.0758282528,10.3973345 1.07628384,6.31311692 3.73909041,3.73640731 C6.3155716,1.07668514 10.3994271,-0.0788496017 14.1678628,0.00416293758 Z" id="路径" fill="#775CFF"></path>
            <path d="M4.05162064,3.58729298 C1.32533015,6.17458593 0.0576230486,10.1878903 0,14 C4.96998799,14 9,10.0467011 9,5.17567201 C9,3.66494706 8.6110444,2.2424654 7.93037214,1 C6.46818725,1.63182187 5.13565425,2.48954658 4.05162064,3.58729298 Z" id="路径" fill="#FFFFFF" opacity="0.5"></path>
            <path d="M24.4045202,26 L14.3106685,26 C11.3769393,26 9,23.6226054 9,20.6883142 L9,15.9074713 C9,12.0938697 12.0900211,9 15.9061483,9 L19.0938518,9 C22.9067229,9 26,12.090613 26,15.9074713 L26,24.4074713 C25.9967439,25.2867816 25.2836621,26 24.4045202,26 Z M19.7939092,15.8293103 C19.7320437,15.8293103 19.6311052,15.832567 19.4910937,15.8390804 C19.6213369,15.4222222 19.6864586,15.181226 19.6864585,15.116092 C19.6864585,14.9988506 19.6408734,14.9044061 19.5497031,14.8295019 C19.4585328,14.7545977 19.3575943,14.7155173 19.2403754,14.7155173 C19.0384984,14.7155173 18.8984869,14.8262452 18.8268531,15.0509578 C18.7291707,15.3570881 18.6510247,15.6241379 18.5924153,15.8488506 L17.3974335,15.8488506 C17.5016281,15.545977 17.5504693,15.3342912 17.5504693,15.2137931 C17.5504693,14.9467433 17.4039456,14.8132184 17.1076422,14.8132184 C16.9708868,14.8132184 16.8406435,14.9532567 16.7169125,15.2333333 L16.495499,15.855364 C16.0103429,15.8716475 15.6456618,15.8814176 15.4047118,15.887931 C15.1312009,15.9172414 14.9944455,16.054023 14.9944455,16.3015326 C14.9944455,16.4220307 15.0367746,16.5197318 15.1214327,16.5978927 C15.2060908,16.672797 15.3102854,16.7118774 15.4340165,16.7118774 C15.495882,16.7118774 15.6293814,16.7151341 15.8312584,16.7183908 C15.9973185,16.7216475 16.1308179,16.7216475 16.2285003,16.7183908 C16.1177935,17.0375479 15.9517334,17.4674329 15.733576,18.0113027 C15.254932,18.008046 15.0042138,18.008046 14.9814212,18.0113027 C14.7307029,18.0340996 14.6069719,18.1578544 14.6069719,18.3825671 C14.6069719,18.493295 14.6427888,18.5909962 14.7176786,18.6854406 C14.7990806,18.7896552 14.9032752,18.8385058 15.0302624,18.8385058 L15.41448,18.8385058 C15.1832982,19.4442529 15.0693354,19.76341 15.0693354,19.7927203 C15.0693354,19.9099617 15.1149205,20.0044061 15.2060908,20.0793104 C15.2972611,20.1542146 15.4014557,20.193295 15.5154185,20.193295 C15.7172955,20.193295 15.8507949,20.105364 15.9061483,19.9295019 C15.9940625,19.6591954 16.13733,19.2944444 16.3294388,18.8385058 L17.700249,18.8385058 C17.5276767,19.3954023 17.4397625,19.7308429 17.4397625,19.8415709 C17.4397625,20.0760536 17.5634936,20.193295 17.8109558,20.193295 C18.0942348,20.193295 18.2668072,20.0597701 18.3286727,19.7927203 C18.4458916,19.3563219 18.5338058,19.0404215 18.5924153,18.8450191 C18.7194024,18.8482758 18.8822065,18.8482758 19.0775714,18.8450191 C19.3510822,18.8417625 19.5138862,18.8417625 19.5659835,18.8417625 C19.6832025,18.8417625 19.784141,18.8059387 19.8687991,18.7375479 C19.9502011,18.6691571 19.9925302,18.5747126 19.9925302,18.460728 C19.9925302,18.1643678 19.7646045,18.0145594 19.305497,18.0145594 L18.8333653,18.0145594 C19.0254741,17.4316092 19.1687416,16.9984674 19.2664241,16.7118774 L19.4096916,16.7118774 C19.4780693,16.7151341 19.5236545,16.7151341 19.5529592,16.7151341 C19.8199579,16.7151341 19.9990423,16.6988506 20.0999809,16.6695402 C20.2953457,16.6076628 20.3962842,16.4708812 20.3962842,16.2657088 C20.3930282,15.9693487 20.1911511,15.8293104 19.7939092,15.8293103 L19.7939092,15.8293103 Z M16.6550469,18.0047893 L17.1434591,16.705364 L18.3547213,16.705364 L17.9379429,18.0047893 L16.6550469,18.0047893 L16.6550469,18.0047893 Z" id="形状" fill="#FFFFFF"></path>
            <path d="M21,24.0784641 C21,24.3923205 21.0246154,24.6994992 21.0769231,25 L23.4953846,25 C24.3261538,25 25,24.2687813 25,23.3672788 L25,19 C22.7323077,19.3839733 21,21.5141903 21,24.0784641 Z" id="路径" fill="#775CFF" opacity="0.5"></path>
        </g>
    </g>
</svg>