<?xml version="1.0" encoding="UTF-8"?>
<svg width="34px" height="34px" viewBox="0 0 34 34" version="1.1" xmlns="http://www.w3.org/2000/svg" xmlns:xlink="http://www.w3.org/1999/xlink">
    <title>收藏备份 2</title>
    <g id="个人主页" stroke="none" stroke-width="1" fill="none" fill-rule="evenodd">
        <g id="收藏备份-2" fill-rule="nonzero">
            <rect id="矩形" fill="#000000" opacity="0" x="0" y="0" width="34" height="34"></rect>
            <path d="M14.1678628,0.00416293758 L19.8321372,0.00416293758 C23.6005729,-0.0788496017 27.6844284,1.07668514 30.2609096,3.73640731 C32.9237162,6.31311695 34.0758283,10.3973345 33.9961433,14.1661044 L33.9961433,19.830881 C34.0758283,23.5996509 32.9237162,27.6838685 30.2609096,30.2605781 C27.6844284,32.9236207 23.6005729,34.075835 19.8321372,33.9961429 L14.1678628,33.9961429 C10.3994271,34.075835 6.3155716,32.9236208 3.73909041,30.2605781 C1.07628384,27.6871889 -0.0758282528,23.6029714 0.0038567315,19.8342015 L0.0038567315,14.1694249 C-0.0758282528,10.3973345 1.07628384,6.31311692 3.73909041,3.73640731 C6.3155716,1.07668514 10.3994271,-0.0788496017 14.1678628,0.00416293758 Z" id="路径" fill="#FFA800"></path>
            <path d="M4.05162064,3.58729298 C1.32533015,6.17458593 0.0576230486,10.1878903 0,14 C4.96998799,14 9,10.0467011 9,5.17567201 C9,3.66494706 8.6110444,2.2424654 7.93037214,1 C6.46818725,1.63182187 5.13565425,2.48954658 4.05162064,3.58729298 Z" id="路径" fill="#FFFFFF" opacity="0.5"></path>
            <path d="M26.6210275,16.2095552 L22.6439936,19.4449326 C22.3231082,19.7072605 22.1902163,20.1444737 22.3101432,20.5514182 L23.7816781,25.5793695 C24.0507033,26.5008803 23.062117,27.2643218 22.2939368,26.7262133 L18.1191856,23.7800692 C17.7820939,23.5412836 17.3412817,23.5480099 17.0074313,23.7901588 L12.8780578,26.8102927 C12.1196014,27.3652171 11.1180501,26.6152284 11.3741102,25.6903544 L12.771096,20.6354977 C12.8845403,20.2285531 12.7451659,19.79134 12.417798,19.5357384 L8.39214504,16.3709878 C7.65313628,15.7925211 8.02588194,14.5649611 8.94964288,14.5313293 L13.9865709,14.3530809 C14.3917292,14.3396282 14.7482685,14.0638476 14.8811605,13.6636294 L16.5212413,8.68948889 C16.8226791,7.77806761 18.0543603,7.76797808 18.3687632,8.672673 L20.0866344,13.6165449 C20.2260088,14.0133999 20.5857894,14.2824541 20.9909477,14.2891805 L26.031117,14.3799863 C26.9581193,14.3968022 27.3503125,15.6142727 26.6210275,16.2095552 Z M19.5096889,19.7408923 C19.4059684,19.5727334 19.23094,19.4684748 19.0397053,19.4684748 C18.829023,19.4684748 18.634547,19.5929124 18.5437915,19.7846136 C18.378487,20.1377473 18.038154,20.3597171 17.6589258,20.3597171 C17.2796977,20.3597171 16.9393647,20.1377473 16.7740601,19.7846136 C16.6833046,19.5929125 16.4888286,19.4684748 16.2781463,19.4684748 C16.0836703,19.4684748 15.9086419,19.5693702 15.8081627,19.7408923 C15.7076834,19.9090512 15.6947184,20.1175682 15.7822325,20.2958167 C16.1355306,21.0458054 16.858333,21.509924 17.6621671,21.509924 C18.4660012,21.509924 19.1888036,21.0458054 19.5421016,20.2958167 C19.6231333,20.1175682 19.6101682,19.9124144 19.5096889,19.7408923 L19.5096889,19.7408923 Z" id="形状" fill="#FFFFFF"></path>
            <path d="M22.0682709,19.2394366 L26,16.0070423 C25.9026301,16.0035211 25.8052602,16 25.7078903,16 C22.5551203,16 20,18.6795775 20,21.9859155 C20,24.084507 21.0307778,25.9295775 22.5853386,27 C23.0721881,26.8309859 23.4280918,26.2816901 23.2467823,25.665493 L21.7224398,20.4014085 C21.5982093,19.9753521 21.7358702,19.5140845 22.0682709,19.2394366 L22.0682709,19.2394366 Z" id="路径" fill="#FFA800" opacity="0.5"></path>
        </g>
    </g>
</svg>