<?xml version="1.0" encoding="UTF-8"?>
<svg width="34px" height="34px" viewBox="0 0 34 34" version="1.1" xmlns="http://www.w3.org/2000/svg" xmlns:xlink="http://www.w3.org/1999/xlink">
    <title>编组 2备份 2</title>
    <g id="个人主页" stroke="none" stroke-width="1" fill="none" fill-rule="evenodd">
        <g id="编组-2备份-2" fill-rule="nonzero">
            <path d="M30.3486139,3.65147447 C27.5615339,0.729968832 22.2806646,0.0696955167 17.0002048,0 C11.7193354,0.0692879405 6.4388757,0.729968832 3.65138609,3.65147447 C0.728720649,6.43888756 0.0692264135,11.7194438 0,17 C0.0692264135,22.2805562 0.72994952,27.5611124 3.65138609,30.3485255 C6.43846608,33.2700312 11.7181066,33.9303045 17.0002048,34 C22.2806646,33.9307121 27.5611243,33.2700312 30.3486139,30.3485255 C33.2712794,27.5611124 33.9307736,22.2805562 34,17 C33.930364,11.7190362 33.2700505,6.43847998 30.3486139,3.65147447 Z" id="路径" fill="#FC4F5A"></path>
            <path d="M32.0853011,24.97674 C28.8755696,23.8819969 25.2768425,26.9670279 17.0582232,26.4194444 C8.83960381,25.8722848 7.29646368,23.2598201 4.81625428,22.0659016 C3.56972847,21.4657637 1.2067563,20.6715134 0,21.143232 C0.403494897,24.8440824 1.35050653,28.1647608 3.42804956,30.202941 C6.24671412,33.2409273 11.5861861,33.9275257 16.9281437,34 C22.2684442,33.9279495 27.6087448,33.2409273 30.4278236,30.202941 C31.6213234,29.0327568 32.4415697,27.4395941 33,25.5942548 C32.7489549,25.3136819 32.4473694,25.1000735 32.0853011,24.97674 L32.0853011,24.97674 Z" id="路径" fill="#FFFFFF" opacity="0.6"></path>
            <path d="M30.7939473,30.2518928 C32.5887486,28.4895544 33.5274044,25.7565072 34,22.6506577 C33.088303,22.5259718 32.0397698,22.4364323 31.0410694,22.4740891 C28.451801,22.5724152 27.9432603,23.853165 25.0349796,24.3079755 C21.2660602,24.8975137 19.0472707,22.300031 15.9363906,22.0318309 C12.2246565,21.7117481 10.3743038,23.8983531 6.87374675,24.4385191 C5.03932417,24.7217819 2.75681396,23.8042111 1,22.8665567 C1.48321574,25.8828667 2.41982919,28.5305584 4.17174155,30.2514744 C6.9509469,33.2506296 12.2156703,33.9284521 17.4828444,34 C22.7487932,33.9288705 28.0143335,33.2506296 30.7939473,30.2518928 Z" id="路径" fill="#FFFFFF" opacity="0.4"></path>
            <path d="M9,4 C9,4 3.93963577,4.07395176 3,10 C4.72989564,7.30447603 6.22570084,5.86542431 9,4 Z" id="路径" fill="#FFFFFF"></path>
            <path d="M10,14 C10,16.8581246 11.5247913,19.4991408 14,20.9282032 C16.4752086,22.3572656 19.5247914,22.3572656 22,20.9282032 C24.4752087,19.4991408 26,16.8581246 26,14 C26,9.58172196 22.418278,6 18,6 C13.581722,6 10,9.58172196 10,14 L10,14 Z" id="路径" fill="#FFFFFF" opacity="0.4"></path>
            <path d="M18,7 C21.3131699,7 24,9.68638966 24,13 C24,16.3136103 21.3136103,19 18,19 C14.6863897,19 12,16.3136103 12,13 C12,9.68638966 14.6868301,7 18,7 Z M18.3638232,9.00014682 L17.6370577,9.00014682 L17.6370577,9.74893555 C16.118338,9.91851417 14.9193951,11.1174571 14.7498165,12.6361768 L14.0010277,12.6361768 L14.0010277,13.3629423 L14.7498165,13.3629423 C14.9193951,14.881662 16.118338,16.0806049 17.6370577,16.2501835 L17.6370577,16.9989723 L18.3638232,16.9989723 L18.3638232,16.2501835 C19.8825429,16.0806049 21.0814858,14.881662 21.2510645,13.3629423 L21.9998532,13.3629423 L21.9998532,12.6361768 L21.2510645,12.6361768 C21.0814858,11.1174571 19.8825429,9.91851417 18.3638232,9.74893555 L18.3638232,9.00014682 Z M18,10.4549988 C19.4046396,10.4541183 20.5441198,11.5922772 20.5450012,12.9969168 L20.5450012,13 C20.5458817,14.4046396 19.4077228,15.5441198 18.0030832,15.5450012 L18,15.5450012 C16.5953604,15.5458817 15.4558802,14.4077228 15.4549988,13.0030832 L15.4549988,13 C15.4541183,11.5953604 16.5922772,10.4558802 17.9969168,10.4549988 L18,10.4549988 Z M18,11.5451476 C17.1965937,11.5451476 16.5451476,12.1965937 16.5451476,13 C16.5451476,13.8034063 17.1965937,14.4548524 18,14.4548524 C18.8034063,14.4548524 19.4548527,13.8034063 19.4548527,13 C19.4552929,12.1965937 18.8038467,11.5451476 18,11.5451476 Z" id="形状" fill="#FFFFFF"></path>
        </g>
    </g>
</svg>