<?xml version="1.0" encoding="UTF-8"?>
<svg width="34px" height="34px" viewBox="0 0 34 34" version="1.1" xmlns="http://www.w3.org/2000/svg" xmlns:xlink="http://www.w3.org/1999/xlink">
    <title>反馈备份 2</title>
    <g id="个人主页" stroke="none" stroke-width="1" fill="none" fill-rule="evenodd">
        <g id="反馈备份-2" fill-rule="nonzero">
            <rect id="矩形" fill="#000000" opacity="0" x="0" y="0" width="34" height="34"></rect>
            <path d="M14.1678628,0.00416293758 L19.8321372,0.00416293758 C23.6005729,-0.0788496017 27.6844284,1.07668514 30.2609096,3.73640731 C32.9237162,6.31311695 34.0758283,10.3973345 33.9961433,14.1661044 L33.9961433,19.830881 C34.0758283,23.5996509 32.9237162,27.6838685 30.2609096,30.2605781 C27.6844284,32.9236207 23.6005729,34.075835 19.8321372,33.9961429 L14.1678628,33.9961429 C10.3994271,34.075835 6.3155716,32.9236208 3.73909041,30.2605781 C1.07628384,27.6871889 -0.0758282528,23.6029714 0.0038567315,19.8342015 L0.0038567315,14.1694249 C-0.0758282528,10.3973345 1.07628384,6.31311692 3.73909041,3.73640731 C6.3155716,1.07668514 10.3994271,-0.0788496017 14.1678628,0.00416293758 Z" id="路径" fill="#775CFF"></path>
            <path d="M4.05162064,3.58729298 C1.32533015,6.17458593 0.0576230486,10.1878903 0,14 C4.96998799,14 9,10.0467011 9,5.17567201 C9,3.66494706 8.6110444,2.2424654 7.93037214,1 C6.46818725,1.63182187 5.13565425,2.48954658 4.05162064,3.58729298 Z" id="路径" fill="#FFFFFF" opacity="0.5"></path>
            <path d="M20.6479358,21.6821323 C20.6995413,21.8269168 20.7339449,21.9815729 20.733945,22.1428101 L20.733945,24.1204344 C20.733945,24.9397828 20.0389908,25.6044751 19.1823394,25.6044751 L16.0791284,25.6044751 C15.222477,25.6044751 14.5275229,24.9397828 14.5275229,24.1204344 L14.5275229,22.1428101 C14.5275229,22.017769 14.5481651,21.8960184 14.5791284,21.7775584 C11.8887615,20.6916749 10,18.1414939 10,15.1734123 C10,11.2115828 13.3577982,8 17.5,8 C21.6422019,8 25,11.2115828 25,15.1734123 C25,18.05923 23.2178899,20.5435999 20.6479358,21.6821323 L20.6479358,21.6821323 Z M16.9151376,18.5462323 C17.0458716,18.6712734 17.2075688,18.733794 17.4002294,18.733794 C17.5860092,18.733794 17.7477064,18.674564 17.8853211,18.556104 C18.0229358,18.4244817 18.0917431,18.2698256 18.0917431,18.0921356 C18.0917431,17.9012833 18.0263761,17.7499177 17.8956422,17.6380388 C17.771789,17.5195788 17.6066514,17.4603488 17.4036697,17.4603488 C17.2041284,17.4603488 17.0424312,17.5195788 16.918578,17.6380388 C16.787844,17.7499177 16.7224771,17.9012833 16.7224771,18.0921356 C16.7190367,18.2698256 16.7844037,18.4211912 16.9151376,18.5462323 L16.9151376,18.5462323 Z M19.0172018,12.721948 C18.6525229,12.4060546 18.1674312,12.2513985 17.565367,12.2513985 C16.8772936,12.2513985 16.337156,12.4422508 15.9449541,12.8206647 C15.5527523,13.1957881 15.3600918,13.7058243 15.3600918,14.3507733 L16.3371559,14.3507733 C16.3371559,13.9591971 16.4197248,13.656466 16.5883028,13.4425798 C16.7740826,13.1859164 17.0768349,13.0608753 17.5,13.0608753 C17.8405963,13.0608753 18.1055046,13.1497203 18.2912844,13.3274103 C18.4701835,13.5116815 18.559633,13.7551826 18.559633,14.0579138 C18.559633,14.278381 18.4736239,14.4955577 18.2981651,14.7094439 L18.1399082,14.8772623 C17.5550459,15.3774268 17.2041284,15.7426785 17.0871559,15.9828891 C16.9633027,16.2033564 16.9013761,16.4830536 16.9013761,16.828562 L16.9013761,16.9799276 L17.8990826,16.9799276 L17.8990826,16.828562 C17.8990826,16.6080948 17.9472477,16.413952 18.0470183,16.2395525 C18.1330275,16.0684435 18.2637615,15.9137874 18.4392202,15.7755841 C18.8795871,15.4070418 19.1410551,15.1767029 19.2201835,15.0812767 C19.4575688,14.7917078 19.5745413,14.4297466 19.5745413,13.9953932 C19.5779816,13.455742 19.3887615,13.0312603 19.0172018,12.721948 L19.0172018,12.721948 Z M15.3566514,26.5126686 L19.4954129,26.5126686 C19.9254587,26.5126686 20.2729358,26.8450148 20.2729358,27.2563343 C20.2729358,27.6676538 19.9254587,28 19.4954129,28 L15.3566514,28 C14.9266055,28 14.5791284,27.6676538 14.5791284,27.2563343 C14.5825688,26.8450148 14.9300458,26.5126686 15.3566514,26.5126686 Z" id="形状" fill="#FFFFFF"></path>
            <path d="M24,15 C21.0789957,16.2484953 19,19.4230438 19,23.144454 C19,23.7773001 19.061237,24.3963886 19.1745254,24.9914015 C19.7868953,24.83319 20.2461727,24.2175408 20.2461727,23.4780739 L20.2461727,21.411006 C20.2461727,21.2424764 20.2155542,21.0808255 20.1696264,20.9294927 C22.2333129,19.8529664 23.7274954,17.6380051 24,15 L24,15 Z M19.4439681,26.0507309 C19.548071,26.3774721 19.6674831,26.6938951 19.8022045,27 C19.8266993,26.9208942 19.8389467,26.8383491 19.8389467,26.7489252 C19.8389467,26.4428203 19.6766687,26.1745486 19.4439681,26.0507309 Z" id="形状" fill="#775CFF" opacity="0.5"></path>
        </g>
    </g>
</svg>