<?xml version="1.0" encoding="UTF-8"?>
<svg width="34px" height="34px" viewBox="0 0 34 34" version="1.1" xmlns="http://www.w3.org/2000/svg" xmlns:xlink="http://www.w3.org/1999/xlink">
    <title>我的备份 2</title>
    <g id="个人主页" stroke="none" stroke-width="1" fill="none" fill-rule="evenodd">
        <g id="我的备份-2" transform="translate(0.000000, -0.000000)" fill-rule="nonzero">
            <rect id="矩形" fill="#000000" opacity="0" x="0" y="0" width="34" height="34"></rect>
            <path d="M33.9968011,17 C34.1667703,27.5517663 27.5515676,34.1602178 16.9998775,33.9970461 C6.44818728,34.1602178 -0.160216641,27.5517662 0.00295382915,17 C-0.160216641,6.44823374 6.44818728,-0.160217796 16.9998775,0.00295385046 C27.5515676,-0.160217796 34.1599715,6.44823377 33.9968011,17 Z" id="路径" fill="#FF5FB7"></path>
            <path d="M34,18.3921539 C33.4671191,10.6443237 28.1733678,5.87642828 20.025899,6.0026373 C11.3245145,5.86240508 5.86248504,11.3244501 6.00271686,20.0258593 C5.86949662,28.1733513 10.6443902,33.4671176 18.3851867,34 C27.5633594,33.4390711 33.4390727,27.5633411 34,18.3921539 Z" id="路径" fill="#FF55AA"></path>
            <path d="M34,21.273941 C33.0200326,16.7052656 29.4110494,13.9208066 24.1395008,14.0019073 C17.8474344,13.9005314 13.9005314,17.8474344 14.0019073,24.1395008 C13.9208066,29.4110494 16.7052656,33.0200326 21.2671826,34 C28.2350885,32.8645895 32.8645895,28.2350885 34,21.273941 L34,21.273941 Z" id="路径" fill="#FF4A9C"></path>
            <path d="M33,23.0982182 C31.8820723,21.0984194 29.7573153,19.959645 26.9451369,20.0013075 C22.63313,19.9318701 19.93205,22.6329872 20.0014865,26.9450535 C19.952881,29.7572706 21.0985833,31.8820569 23.0914109,33 C27.8630746,31.5989988 31.5956735,27.8689643 33,23.0982182 L33,23.0982182 Z" id="路径" fill="#FF408E"></path>
            <path d="M7,17.5 C7,23.2989899 11.7010101,28 17.5,28 C23.2989899,28 28,23.2989899 28,17.5 C28,11.7010101 23.2989899,7 17.5,7 C11.7010101,7 7,11.7010101 7,17.5 L7,17.5 Z" id="路径" fill="#FFB0E3"></path>
            <path d="M11.7142857,18 L20.2857143,18 C20.6802034,18 21,18.2558373 21,18.5714286 C21,20.4649763 19.0812204,22 16.7142857,22 L15.2857143,22 C12.9187796,22 11,20.4649763 11,18.5714286 C11,18.2558373 11.3197966,18 11.7142857,18 L11.7142857,18 Z" id="路径" fill="#FFFFFF"></path>
        </g>
    </g>
</svg>