<?xml version="1.0" encoding="UTF-8"?>
<svg width="25px" height="25px" viewBox="0 0 25 25" version="1.1" xmlns="http://www.w3.org/2000/svg" xmlns:xlink="http://www.w3.org/1999/xlink">
    <title>分享</title>
    <g id="个人主页" stroke="none" stroke-width="1" fill="none" fill-rule="evenodd">
        <g id="分享" fill="#121212" fill-rule="nonzero">
            <rect id="矩形" opacity="0" x="0" y="0" width="25" height="25"></rect>
            <path d="M19.6578947,23 L6.34210525,23 C3.94534904,22.9968107 2.00318931,21.054651 2,18.6578947 L2,5.34210525 C2.00318931,2.94534904 3.94534904,1.00318931 6.34210525,1 L13,1 C13.4796157,1 13.8684211,1.38880535 13.8684211,1.86842106 C13.8684211,2.34803676 13.4796157,2.73684211 13,2.73684211 L6.34210525,2.73684211 C4.90457903,2.74002602 3.74002602,3.90457903 3.73684211,5.34210525 L3.73684211,18.6578947 C3.74002602,20.095421 4.90457903,21.259974 6.34210525,21.2631579 L19.6578947,21.2631579 C21.095421,21.259974 22.259974,20.095421 22.2631579,18.6578947 L22.2631579,12 C22.2631579,11.5203843 22.6519632,11.1315789 23.1315789,11.1315789 C23.6111946,11.1315789 24,11.5203843 24,12 L24,18.6578947 C23.9968107,21.054651 22.054651,22.9968107 19.6578947,23 L19.6578947,23 Z" id="路径"></path>
            <path d="M12.8601931,13 C12.6326917,12.9991761 12.4146897,12.9086724 12.2534805,12.7481227 C12.0912868,12.5878749 12,12.3693477 12,12.1413273 C12,11.9133068 12.0912868,11.6947796 12.2534805,11.5345319 L22.5561472,1.23045906 C22.8944293,0.915201511 23.4215823,0.924503773 23.7485341,1.25150019 C24.0754859,1.5784966 24.0847869,2.10572163 23.7695724,2.44404986 L13.4669057,12.7481227 C13.3056966,12.9086724 13.0876945,12.9991761 12.8601931,13 L12.8601931,13 Z" id="路径"></path>
            <path d="M22.1818182,3 L17.8181818,3 C17.3663125,3 17,2.55228474 17,2 C17,1.44771526 17.3663125,1 17.8181818,1 L22.1818182,1 C22.6336875,1 23,1.44771526 23,2 C23,2.55228474 22.6336875,3 22.1818182,3 L22.1818182,3 Z" id="路径"></path>
            <path d="M23,8 C22.4477153,8 22,7.57263544 22,7.04545454 L22,1.95454546 C22,1.42736456 22.4477153,1 23,1 C23.5522847,1 24,1.42736456 24,1.95454546 L24,7.04545454 C24,7.57263544 23.5522847,8 23,8 L23,8 Z" id="路径"></path>
        </g>
    </g>
</svg>